<?xml version="1.0" encoding="UTF-8" standalone="no"?>
<!-- Created with Inkscape (http://www.inkscape.org/) -->

<svg
   xmlns:dc="http://purl.org/dc/elements/1.1/"
   xmlns:cc="http://creativecommons.org/ns#"
   xmlns:rdf="http://www.w3.org/1999/02/22-rdf-syntax-ns#"
   xmlns:svg="http://www.w3.org/2000/svg"
   xmlns="http://www.w3.org/2000/svg"
   xmlns:sodipodi="http://sodipodi.sourceforge.net/DTD/sodipodi-0.dtd"
   xmlns:inkscape="http://www.inkscape.org/namespaces/inkscape"
   width="64"
   height="64"
   id="svg4752"
   version="1.1"
   inkscape:version="0.91 r13725"
   viewBox="0 0 64 64"
   sodipodi:docname="pill-logo.svg">
  <defs
     id="defs4754" />
  <sodipodi:namedview
     id="base"
     pagecolor="#ffffff"
     bordercolor="#666666"
     borderopacity="1.0"
     inkscape:pageopacity="0.0"
     inkscape:pageshadow="2"
     inkscape:zoom="7.7781746"
     inkscape:cx="27.960283"
     inkscape:cy="37.458787"
     inkscape:current-layer="g4448"
     showgrid="true"
     inkscape:document-units="px"
     inkscape:grid-bbox="true"
     inkscape:snap-page="true"
     inkscape:window-width="1536"
     inkscape:window-height="811"
     inkscape:window-x="-8"
     inkscape:window-y="-8"
     inkscape:window-maximized="1" />
  <metadata
     id="metadata4757">
    <rdf:RDF>
      <cc:Work
         rdf:about="">
        <dc:format>image/svg+xml</dc:format>
        <dc:type
           rdf:resource="http://purl.org/dc/dcmitype/StillImage" />
        <dc:title></dc:title>
      </cc:Work>
    </rdf:RDF>
  </metadata>
  <g
     id="layer1"
     inkscape:label="Layer 1"
     inkscape:groupmode="layer">
    <g
       id="g4448"
       transform="matrix(0.13885593,0,0,0.13723481,-20.024409,-22.175961)">
      <g
         id="g5331"
         transform="translate(-7.4070942,-6.5577683)">
        <g
           id="g4238"
           transform="matrix(2.1272597,-0.20517037,-0.20517042,2.1272592,-625.75858,-226.89072)">
          <path
             id="path4206"
             d="m 539.41602,376.06836 c -3.34646,-0.85216 -6.55024,-1.87401 -9.61719,-3.04102 -3.06696,-1.167 -5.99613,-2.47933 -8.79297,-3.91211 -2.79684,-1.43277 -5.46195,-2.98726 -7.99805,-4.63671 -2.5361,-1.64946 -4.94377,-3.39388 -7.22851,-5.21094 -2.28474,-1.81706 -4.44552,-3.707 -6.48828,-5.64258 -2.04277,-1.93558 -3.96719,-3.91685 -5.77735,-5.92188 -1.81016,-2.00502 -3.50681,-4.0332 -5.09375,-6.05859 -1.58694,-2.02539 -3.0644,-4.04825 -4.4375,-6.04492 -2.74619,-3.99334 -5.07439,-7.88087 -7.02148,-11.46484 -1.9471,-3.58398 -3.5133,-6.86452 -4.73633,-9.64649 -2.44606,-5.56393 -3.51953,-9.13086 -3.51953,-9.13086 l -35.35547,35.35547 c -19.58686,19.58686 -19.58686,51.12408 0,70.71094 19.58686,19.58686 51.12408,19.58686 70.71094,0 l 35.35547,-35.35547 z"
             style="fill:#ff6670;fill-opacity:1;stroke:#000000;stroke-width:5.13199043;stroke-linecap:square;stroke-linejoin:round;stroke-miterlimit:4;stroke-dasharray:none;stroke-dashoffset:0"
             inkscape:connector-curvature="0" />
          <path
             id="rect4200"
             d="m 539.41602,255.31055 c -12.78096,0 -25.56204,4.89797 -35.35547,14.6914 l -35.35547,35.35547 c 0,0 1.07347,3.56693 3.51953,9.13086 1.22303,2.78197 2.78923,6.06251 4.73633,9.64649 1.94709,3.58397 4.27529,7.4715 7.02148,11.46484 1.3731,1.99667 2.85056,4.01953 4.4375,6.04492 1.58694,2.02539 3.28359,4.05357 5.09375,6.05859 1.81016,2.00503 3.73458,3.9863 5.77735,5.92188 2.04276,1.93558 4.20354,3.82552 6.48828,5.64258 2.28474,1.81706 4.69241,3.56148 7.22851,5.21094 2.5361,1.64945 5.20121,3.20394 7.99805,4.63671 2.79684,1.43278 5.72601,2.74511 8.79297,3.91211 3.06695,1.16701 6.27073,2.18886 9.61719,3.04102 l 35.35546,-35.35547 c 19.58686,-19.58686 19.58686,-51.12408 0,-70.71094 -9.79342,-9.79343 -22.57451,-14.6914 -35.35546,-14.6914 z"
             style="fill:#66b8ff;fill-opacity:1;stroke:#000000;stroke-width:5.13199043;stroke-linecap:square;stroke-linejoin:round;stroke-miterlimit:4;stroke-dasharray:none;stroke-dashoffset:0"
             inkscape:connector-curvature="0" />
        </g>
        <ellipse
           style="fill:#808080;fill-opacity:0.31012657;stroke:none;stroke-width:1.5;stroke-linecap:square;stroke-linejoin:round;stroke-miterlimit:4;stroke-dasharray:none;stroke-dashoffset:0"
           id="path4182-9"
           cx="-19.8943"
           cy="627.26355"
           rx="164.10486"
           ry="17.156418"
           transform="matrix(0.70710686,-0.7071067,0.70710686,0.7071067,0,0)" />
        <ellipse
           inkscape:transform-center-y="-1.5619262"
           inkscape:transform-center-x="0.89936195"
           transform="matrix(0.82020998,-0.57206257,0.53158052,0.84700776,0,0)"
           ry="21.985666"
           rx="58.654377"
           cy="457.84506"
           cx="234.0674"
           id="path4149-4"
           style="fill:#ccddff;fill-opacity:1;stroke:none;stroke-width:1.5;stroke-linecap:square;stroke-linejoin:round;stroke-miterlimit:4;stroke-dasharray:none;stroke-dashoffset:0" />
        <path
           inkscape:connector-curvature="0"
           style="fill:#ffffff;fill-opacity:0.43037977;stroke:#000000;stroke-width:18.11030006;stroke-linecap:square;stroke-linejoin:round;stroke-miterlimit:4;stroke-dasharray:none;stroke-dashoffset:0"
           d="m 310.13624,179.87563 a 147.98735,147.98735 0 0 0 -147.98828,147.98828 147.98735,147.98735 0 0 0 147.98828,147.98828 147.98735,147.98735 0 0 0 88.78125,-29.77148 l 163.34375,163.34375 c 0.39174,0.39173 1.02232,0.39173 1.41406,0 l 23.23633,-23.23633 c 0.39174,-0.39174 0.39174,-1.02428 0,-1.41602 L 424.19483,422.05532 A 147.98735,147.98735 0 0 0 458.12257,327.86391 147.98735,147.98735 0 0 0 310.13624,179.87563 Z"
           id="rect4383" />
        <rect
           style="fill:#000000;fill-opacity:1;stroke:#000000;stroke-width:36.22288513;stroke-linecap:square;stroke-linejoin:round;stroke-miterlimit:4;stroke-dasharray:none;stroke-dashoffset:0"
           id="rect4428"
           width="230.11154"
           height="32.410072"
           x="606.98547"
           y="7.4310541"
           rx="6.4009185"
           ry="6.4009185"
           transform="matrix(0.71269851,0.70147048,-0.71269851,0.70147048,0,0)" />
      </g>
    </g>
  </g>
</svg>
